<mxfile host="app.diagrams.net" modified="2021-08-11T10:56:45.207Z" agent="5.0 (Windows NT 10.0; Win64; x64) AppleWebKit/537.36 (KHTML, like Gecko) Chrome/92.0.4515.107 Safari/537.36 Edg/92.0.902.62" etag="1pv7cz4XzlGO9Qz_5Zxn" version="14.9.6" type="github">
  <diagram id="s6-rGilCzO4IDhanF9iG" name="Page-1">
    <mxGraphModel dx="868" dy="482" grid="1" gridSize="10" guides="1" tooltips="1" connect="1" arrows="1" fold="1" page="1" pageScale="1" pageWidth="850" pageHeight="1100" background="#F1FAEE" math="0" shadow="0">
      <root>
        <mxCell id="0" />
        <mxCell id="1" parent="0" />
        <mxCell id="oejTwaeCi4Gl0gxKC491-28" value="" style="endArrow=classic;html=1;strokeColor=#457B9D;fontColor=#1D3557;labelBackgroundColor=#F1FAEE;" edge="1" parent="1">
          <mxGeometry width="50" height="50" relative="1" as="geometry">
            <mxPoint x="380" y="380" as="sourcePoint" />
            <mxPoint x="430" y="330" as="targetPoint" />
          </mxGeometry>
        </mxCell>
        <mxCell id="oejTwaeCi4Gl0gxKC491-20" style="edgeStyle=orthogonalEdgeStyle;rounded=0;orthogonalLoop=1;jettySize=auto;html=1;exitX=0.5;exitY=1;exitDx=0;exitDy=0;entryX=0.5;entryY=0;entryDx=0;entryDy=0;strokeColor=#457B9D;fontColor=#1D3557;labelBackgroundColor=#F1FAEE;" edge="1" parent="1" source="oejTwaeCi4Gl0gxKC491-1" target="oejTwaeCi4Gl0gxKC491-14">
          <mxGeometry relative="1" as="geometry" />
        </mxCell>
        <mxCell id="oejTwaeCi4Gl0gxKC491-50" style="edgeStyle=orthogonalEdgeStyle;rounded=0;orthogonalLoop=1;jettySize=auto;html=1;exitX=1;exitY=0.5;exitDx=0;exitDy=0;entryX=0;entryY=0.5;entryDx=0;entryDy=0;strokeColor=#457B9D;fontColor=#1D3557;labelBackgroundColor=#F1FAEE;" edge="1" parent="1" source="oejTwaeCi4Gl0gxKC491-1" target="oejTwaeCi4Gl0gxKC491-46">
          <mxGeometry relative="1" as="geometry" />
        </mxCell>
        <mxCell id="oejTwaeCi4Gl0gxKC491-1" value="Data Preperation" style="rounded=0;whiteSpace=wrap;html=1;fillColor=#A8DADC;strokeColor=#457B9D;fontColor=#1D3557;" vertex="1" parent="1">
          <mxGeometry x="50" y="220" width="120" height="60" as="geometry" />
        </mxCell>
        <mxCell id="oejTwaeCi4Gl0gxKC491-44" style="edgeStyle=orthogonalEdgeStyle;rounded=0;orthogonalLoop=1;jettySize=auto;html=1;exitX=1;exitY=0.25;exitDx=0;exitDy=0;entryX=0;entryY=0.25;entryDx=0;entryDy=0;strokeColor=#457B9D;fontColor=#1D3557;labelBackgroundColor=#F1FAEE;" edge="1" parent="1" source="oejTwaeCi4Gl0gxKC491-4" target="oejTwaeCi4Gl0gxKC491-5">
          <mxGeometry relative="1" as="geometry" />
        </mxCell>
        <mxCell id="oejTwaeCi4Gl0gxKC491-4" value="Evaluate and Test Model" style="rounded=0;whiteSpace=wrap;html=1;fillColor=#A8DADC;strokeColor=#457B9D;fontColor=#1D3557;" vertex="1" parent="1">
          <mxGeometry x="470" y="360" width="120" height="60" as="geometry" />
        </mxCell>
        <mxCell id="oejTwaeCi4Gl0gxKC491-45" style="edgeStyle=orthogonalEdgeStyle;rounded=0;orthogonalLoop=1;jettySize=auto;html=1;exitX=0.5;exitY=1;exitDx=0;exitDy=0;strokeColor=#457B9D;fontColor=#1D3557;labelBackgroundColor=#F1FAEE;" edge="1" parent="1" source="oejTwaeCi4Gl0gxKC491-5" target="oejTwaeCi4Gl0gxKC491-6">
          <mxGeometry relative="1" as="geometry" />
        </mxCell>
        <mxCell id="oejTwaeCi4Gl0gxKC491-5" value="Deploy Model" style="rounded=0;whiteSpace=wrap;html=1;fillColor=#A8DADC;strokeColor=#457B9D;fontColor=#1D3557;" vertex="1" parent="1">
          <mxGeometry x="640" y="360" width="120" height="60" as="geometry" />
        </mxCell>
        <mxCell id="oejTwaeCi4Gl0gxKC491-6" value="Online and Batch Predictions" style="rounded=0;whiteSpace=wrap;html=1;fillColor=#A8DADC;strokeColor=#457B9D;fontColor=#1D3557;" vertex="1" parent="1">
          <mxGeometry x="640" y="470" width="120" height="60" as="geometry" />
        </mxCell>
        <mxCell id="oejTwaeCi4Gl0gxKC491-8" value="Managed Datasets" style="rounded=0;whiteSpace=wrap;html=1;fillColor=#A8DADC;strokeColor=#457B9D;fontColor=#1D3557;" vertex="1" parent="1">
          <mxGeometry x="50" y="400" width="190" height="170" as="geometry" />
        </mxCell>
        <mxCell id="oejTwaeCi4Gl0gxKC491-10" value="Labelling Tasks" style="rounded=0;whiteSpace=wrap;html=1;fillColor=#f8cecc;strokeColor=#b85450;" vertex="1" parent="1">
          <mxGeometry x="50" y="510" width="80" height="60" as="geometry" />
        </mxCell>
        <mxCell id="oejTwaeCi4Gl0gxKC491-43" style="edgeStyle=orthogonalEdgeStyle;rounded=0;orthogonalLoop=1;jettySize=auto;html=1;exitX=1;exitY=0.5;exitDx=0;exitDy=0;entryX=0;entryY=0.5;entryDx=0;entryDy=0;strokeColor=#457B9D;fontColor=#1D3557;labelBackgroundColor=#F1FAEE;" edge="1" parent="1" source="oejTwaeCi4Gl0gxKC491-13" target="oejTwaeCi4Gl0gxKC491-4">
          <mxGeometry relative="1" as="geometry" />
        </mxCell>
        <mxCell id="oejTwaeCi4Gl0gxKC491-13" value="" style="rounded=0;whiteSpace=wrap;html=1;fillColor=#A8DADC;strokeColor=#457B9D;fontColor=#1D3557;" vertex="1" parent="1">
          <mxGeometry x="330" y="290" width="110" height="280" as="geometry" />
        </mxCell>
        <mxCell id="oejTwaeCi4Gl0gxKC491-9" value="AutoML" style="rounded=0;whiteSpace=wrap;html=1;fillColor=#f8cecc;strokeColor=#b85450;" vertex="1" parent="1">
          <mxGeometry x="340" y="410" width="90" height="50" as="geometry" />
        </mxCell>
        <mxCell id="oejTwaeCi4Gl0gxKC491-11" value="Custom Code" style="rounded=0;whiteSpace=wrap;html=1;fillColor=#f8cecc;strokeColor=#b85450;" vertex="1" parent="1">
          <mxGeometry x="340" y="340" width="90" height="50" as="geometry" />
        </mxCell>
        <mxCell id="oejTwaeCi4Gl0gxKC491-12" value="Import Trained model outside Vertex AI" style="rounded=0;whiteSpace=wrap;html=1;fillColor=#f8cecc;strokeColor=#b85450;" vertex="1" parent="1">
          <mxGeometry x="340" y="480" width="90" height="50" as="geometry" />
        </mxCell>
        <mxCell id="oejTwaeCi4Gl0gxKC491-17" style="edgeStyle=orthogonalEdgeStyle;rounded=0;orthogonalLoop=1;jettySize=auto;html=1;exitX=0.5;exitY=1;exitDx=0;exitDy=0;entryX=0.25;entryY=0;entryDx=0;entryDy=0;strokeColor=#457B9D;fontColor=#1D3557;labelBackgroundColor=#F1FAEE;" edge="1" parent="1" source="oejTwaeCi4Gl0gxKC491-14" target="oejTwaeCi4Gl0gxKC491-8">
          <mxGeometry relative="1" as="geometry">
            <mxPoint x="110" y="395" as="targetPoint" />
          </mxGeometry>
        </mxCell>
        <mxCell id="oejTwaeCi4Gl0gxKC491-25" style="edgeStyle=orthogonalEdgeStyle;rounded=0;orthogonalLoop=1;jettySize=auto;html=1;exitX=1;exitY=0.75;exitDx=0;exitDy=0;entryX=0;entryY=0.5;entryDx=0;entryDy=0;strokeColor=#457B9D;fontColor=#1D3557;labelBackgroundColor=#F1FAEE;" edge="1" parent="1" source="oejTwaeCi4Gl0gxKC491-14" target="oejTwaeCi4Gl0gxKC491-11">
          <mxGeometry relative="1" as="geometry" />
        </mxCell>
        <mxCell id="oejTwaeCi4Gl0gxKC491-14" value="GCS, Bigquery" style="rounded=0;whiteSpace=wrap;html=1;fillColor=#A8DADC;strokeColor=#457B9D;fontColor=#1D3557;" vertex="1" parent="1">
          <mxGeometry x="50" y="310" width="120" height="60" as="geometry" />
        </mxCell>
        <mxCell id="oejTwaeCi4Gl0gxKC491-15" value="Model Training" style="text;html=1;strokeColor=none;fillColor=none;align=center;verticalAlign=middle;whiteSpace=wrap;rounded=0;fontColor=#1D3557;" vertex="1" parent="1">
          <mxGeometry x="360" y="300" width="40" height="20" as="geometry" />
        </mxCell>
        <mxCell id="oejTwaeCi4Gl0gxKC491-29" style="edgeStyle=orthogonalEdgeStyle;rounded=0;orthogonalLoop=1;jettySize=auto;html=1;exitX=1;exitY=0.25;exitDx=0;exitDy=0;strokeColor=#457B9D;fontColor=#1D3557;labelBackgroundColor=#F1FAEE;" edge="1" parent="1" source="oejTwaeCi4Gl0gxKC491-8">
          <mxGeometry relative="1" as="geometry">
            <mxPoint x="340" y="442" as="targetPoint" />
            <Array as="points">
              <mxPoint x="290" y="443" />
            </Array>
          </mxGeometry>
        </mxCell>
        <mxCell id="oejTwaeCi4Gl0gxKC491-40" style="edgeStyle=orthogonalEdgeStyle;rounded=0;orthogonalLoop=1;jettySize=auto;html=1;entryX=0;entryY=0.75;entryDx=0;entryDy=0;exitX=1;exitY=0.25;exitDx=0;exitDy=0;strokeColor=#457B9D;fontColor=#1D3557;labelBackgroundColor=#F1FAEE;" edge="1" parent="1" source="oejTwaeCi4Gl0gxKC491-8" target="oejTwaeCi4Gl0gxKC491-11">
          <mxGeometry relative="1" as="geometry">
            <mxPoint x="300" y="370" as="targetPoint" />
            <mxPoint x="270" y="440" as="sourcePoint" />
          </mxGeometry>
        </mxCell>
        <mxCell id="oejTwaeCi4Gl0gxKC491-48" style="edgeStyle=orthogonalEdgeStyle;rounded=0;orthogonalLoop=1;jettySize=auto;html=1;exitX=0.5;exitY=1;exitDx=0;exitDy=0;entryX=0;entryY=0.5;entryDx=0;entryDy=0;strokeColor=#457B9D;fontColor=#1D3557;labelBackgroundColor=#F1FAEE;" edge="1" parent="1" source="oejTwaeCi4Gl0gxKC491-46" target="oejTwaeCi4Gl0gxKC491-11">
          <mxGeometry relative="1" as="geometry" />
        </mxCell>
        <mxCell id="oejTwaeCi4Gl0gxKC491-46" value="Other sources&amp;nbsp;&lt;br&gt;Bigtable, spanner etc" style="rounded=0;whiteSpace=wrap;html=1;fillColor=#A8DADC;strokeColor=#457B9D;fontColor=#1D3557;" vertex="1" parent="1">
          <mxGeometry x="190" y="220" width="120" height="60" as="geometry" />
        </mxCell>
      </root>
    </mxGraphModel>
  </diagram>
</mxfile>
